<?xml version="1.0" encoding="utf-8"?>
<svg version="1.1" xmlns:xlink="http://www.w3.org/1999/xlink" width="5px" height="9px" xmlns="http://www.w3.org/2000/svg">
  <g transform="matrix(1 0 0 1 -297 -113 )">
    <path d="M 4.91408934707904 0.541082164328657  C 4.97136311569301 0.601202404809618  5 0.670340681362724  5 0.748496993987976  C 5 0.826653306613226  4.97136311569301 0.895791583166332  4.91408934707904 0.955911823647295  L 1.53780068728522 4.5  L 4.91408934707904 8.04408817635271  C 4.97136311569301 8.10420841683367  5 8.17334669338677  5 8.25150300601202  C 5 8.32965931863727  4.97136311569301 8.39879759519038  4.91408934707904 8.45891783567134  L 4.48453608247423 8.90981963927856  C 4.42726231386025 8.96993987975952  4.36139747995418 9  4.28694158075601 9  C 4.21248568155785 9  4.14662084765178 8.96993987975952  4.0893470790378 8.90981963927856  L 0.0859106529209622 4.70741482965932  C 0.0286368843069874 4.64729458917836  0 4.57815631262525  0 4.5  C 0 4.42184368737475  0.0286368843069874 4.35270541082164  0.0859106529209622 4.29258517034068  L 4.0893470790378 0.090180360721443  C 4.14662084765178 0.0300601202404807  4.21248568155785 0  4.28694158075601 0  C 4.36139747995418 0  4.42726231386025 0.0300601202404807  4.48453608247423 0.090180360721443  L 4.91408934707904 0.541082164328657  Z " fill-rule="nonzero" fill="#7f7f7f" stroke="none" transform="matrix(1 0 0 1 297 113 )" />
  </g>
</svg>