<?xml version="1.0" encoding="utf-8"?>
<svg version="1.1" xmlns:xlink="http://www.w3.org/1999/xlink" width="15px" height="12px" xmlns="http://www.w3.org/2000/svg">
  <g transform="matrix(1 0 0 1 -18 -200 )">
    <path d="M 10.5552455357143 5.33521524347212  C 10.6612723214286 5.22794636556104  10.7142857142857 5.10091743119266  10.7142857142857 4.95412844036697  C 10.7142857142857 4.80733944954128  10.6612723214286 4.6803105151729  10.5552455357143 4.57304163726182  C 10.44921875 4.46577275935074  10.3236607142857 4.4121383203952  10.1785714285714 4.4121383203952  C 9.21875 4.4121383203952  8.33147321428572 4.55187014820042  7.51674107142857 4.83133380381087  C 6.70200892857143 5.11079745942131  5.97795758928571 5.48906139731828  5.34458705357143 5.96612561750176  C 4.71121651785714 6.44318983768525  4.05412946428571 7.06280875088214  3.37332589285714 7.82498235709245  C 3.26729910714286 7.94354269583627  3.21428571428571 8.07057163020466  3.21428571428571 8.2060691601976  C 3.21428571428571 8.35285815102329  3.26729910714286 8.47988708539167  3.37332589285714 8.58715596330275  C 3.47935267857143 8.69442484121383  3.60491071428571 8.74805928016937  3.75 8.74805928016937  C 3.88392857142857 8.74805928016937  4.00948660714286 8.69442484121383  4.12667410714286 8.58715596330275  C 4.27734375 8.45165843330981  4.48381696428571 8.25123500352858  4.74609375 7.98588567395907  C 5.00837053571429 7.72053634438955  5.1953125 7.53422724064926  5.30691964285714 7.42695836273818  C 6.07142857142857 6.72688779110797  6.82059151785714 6.23006351446718  7.55440848214286 5.93648553281581  C 8.28822544642857 5.64290755116443  9.16294642857143 5.49611856033874  10.1785714285714 5.49611856033874  C 10.3236607142857 5.49611856033874  10.44921875 5.4424841213832  10.5552455357143 5.33521524347212  Z M 14.9330357142857 2.46436132674665  C 14.9776785714286 2.79181369089626  15 3.06280875088214  15 3.2773465067043  C 15 3.8136908962597  14.9441964285714 4.35850388143966  14.8325892857143 4.91178546224418  C 14.5758928571429 6.17642907551164  14.0611049107143 7.257586450247  13.2882254464286 8.15525758645025  C 12.5153459821429 9.05292872265349  11.5178571428571 9.80945659844742  10.2957589285714 10.424841213832  C 9.1015625 11.0345800988003  7.87946428571429 11.3394495412844  6.62946428571429 11.3394495412844  C 5.80357142857143 11.3394495412844  5.00558035714286 11.2067748764996  4.23549107142857 10.9414255469301  C 4.15178571428571 10.9131968948483  3.90625 10.7946365561044  3.49888392857143 10.5857445306987  C 3.09151785714286 10.3768525052929  2.82366071428571 10.27240649259  2.6953125 10.27240649259  C 2.60602678571429 10.27240649259  2.49581473214286 10.3627381792519  2.36467633928571 10.5434015525759  C 2.23353794642857 10.7240649258998  2.10797991071429 10.9216654904728  1.98800223214286 11.136203246295  C 1.86802455357143 11.3507410021171  1.72154017857143 11.5483415666902  1.54854910714286 11.7290049400141  C 1.37555803571429 11.909668313338  1.20814732142857 12  1.04631696428571 12  C 0.806361607142857 12  0.629185267857143 11.9505998588567  0.514787946428572 11.8517995765702  C 0.400390625 11.7529992942837  0.2734375 11.5850388143966  0.133928571428571 11.347918136909  C 0.122767857142857 11.3253352152435  0.106026785714286 11.2942836979534  0.0837053571428572 11.2547635850388  C 0.0613839285714286 11.2152434721242  0.0460379464285714 11.1870148200423  0.0376674107142857 11.1700776287932  C 0.029296875 11.1531404375441  0.0209263392857143 11.1263232180663  0.0125558035714286 11.0896259703599  C 0.00418526785714286 11.0529287226535  0 11.014820042343  0 10.9752999294284  C 0 10.7776993648553  0.0864955357142857 10.5702187720536  0.259486607142857 10.3528581510233  C 0.432477678571429 10.1354975299929  0.622209821428572 9.95059985885674  0.828683035714286 9.79816513761468  C 1.03515625 9.64573041637262  1.22488839285714 9.48764996471418  1.39787946428571 9.32392378263938  C 1.57087053571429 9.16019760056457  1.65736607142857 9.02470007057163  1.65736607142857 8.91743119266055  C 1.65736607142857 8.89484827099506  1.61830357142857 8.78757939308398  1.54017857142857 8.59562455892731  C 1.46205357142857 8.40366972477064  1.41741071428571 8.27946365561044  1.40625 8.22300635144672  C 1.35602678571429 7.93507410021171  1.33091517857143 7.64149611856034  1.33091517857143 7.34227240649259  C 1.33091517857143 6.69301340860974  1.45228794642857 6.07198306280875  1.69503348214286 5.47918136908963  C 1.93777901785714 4.8863796753705  2.26981026785714 4.36556104446013  2.69112723214286 3.9167254763585  C 3.11244419642857 3.46788990825688  3.58816964285714 3.07551164431898  4.11830357142857 2.73959068454481  C 4.6484375 2.40366972477064  5.21763392857143 2.13408609738885  5.82589285714286 1.93083980239944  C 6.1328125 1.82921665490473  6.53738839285714 1.75723359209598  7.03962053571429 1.71489061397318  C 7.54185267857143 1.67254763585039  8.04268973214286 1.64714184897671  8.54213169642857 1.63867325335215  C 9.04157366071429 1.63020465772759  9.53962053571429 1.61326746647848  10.0362723214286 1.5878616796048  C 10.5329241071429 1.56245589273112  10.9891183035714 1.49470712773465  11.4048549107143 1.38461538461539  C 11.8205915178571 1.27452364149612  12.1372767857143 1.11503175723359  12.3549107142857 0.906139731827805  L 12.6018415178571 0.656316160903317  C 12.6018415178571 0.656316160903317  12.6841517857143 0.577275935074098  12.8487723214286 0.419195483415667  C 13.0133928571429 0.261115031757234  13.0887276785714 0.204657727593506  13.0747767857143 0.249823570924489  C 13.0608258928571 0.294989414255469  13.1626674107143 0.249823570924489  13.3803013392857 0.114326040931546  C 13.5979352678571 -0.0211714890613983  13.7193080357143 -0.0338743824982357  13.7444196428571 0.0762173606210297  C 13.9620535714286 0.0762173606210297  14.1587611607143 0.206069160197599  14.3345424107143 0.46577275935074  C 14.5103236607143 0.72547635850388  14.6428571428571 1.04163726182075  14.7321428571429 1.41425546930134  C 14.8214285714286 1.78687367678193  14.8883928571429 2.13690896259704  14.9330357142857 2.46436132674665  Z " fill-rule="nonzero" fill="#000000" stroke="none" transform="matrix(1 0 0 1 18 200 )" />
  </g>
</svg>