<?xml version="1.0" encoding="utf-8"?>
<svg version="1.1" xmlns:xlink="http://www.w3.org/1999/xlink" width="12px" height="12px" viewBox="738 802  12 12" xmlns="http://www.w3.org/2000/svg">
  <path d="M 744 802  C 747.36 802  750 804.64  750 808  C 750 811.36  747.36 814  744 814  C 740.64 814  738 811.36  738 808  C 738 804.64  740.64 802  744 802  Z " fill-rule="nonzero" fill="#ffffff" stroke="none" />
  <path d="M 744 802.5  C 747.08 802.5  749.5 804.92  749.5 808  C 749.5 811.08  747.08 813.5  744 813.5  C 740.92 813.5  738.5 811.08  738.5 808  C 738.5 804.92  740.92 802.5  744 802.5  Z " stroke-width="1" stroke="#797979" fill="none" />
  <path d="M 744 811  C 742.32 811  741 809.68  741 808  C 741 806.32  742.32 805  744 805  C 745.68 805  747 806.32  747 808  C 747 809.68  745.68 811  744 811  " fill-rule="nonzero" fill="#797979" stroke="none" />
</svg>