<?xml version="1.0" encoding="utf-8"?>
<svg version="1.1" xmlns:xlink="http://www.w3.org/1999/xlink" width="12px" height="12px" viewBox="738 704  12 12" xmlns="http://www.w3.org/2000/svg">
  <path d="M 744 704  C 747.36 704  750 706.64  750 710  C 750 713.36  747.36 716  744 716  C 740.64 716  738 713.36  738 710  C 738 706.64  740.64 704  744 704  Z " fill-rule="nonzero" fill="#ffffff" stroke="none" />
  <path d="M 744 704.5  C 747.08 704.5  749.5 706.92  749.5 710  C 749.5 713.08  747.08 715.5  744 715.5  C 740.92 715.5  738.5 713.08  738.5 710  C 738.5 706.92  740.92 704.5  744 704.5  Z " stroke-width="1" stroke="#797979" fill="none" />
  <path d="M 744 713  C 742.32 713  741 711.68  741 710  C 741 708.32  742.32 707  744 707  C 745.68 707  747 708.32  747 710  C 747 711.68  745.68 713  744 713  " fill-rule="nonzero" fill="#797979" stroke="none" />
</svg>