<?xml version="1.0" encoding="utf-8"?>
<svg version="1.1" xmlns:xlink="http://www.w3.org/1999/xlink" width="12px" height="12px" viewBox="788 705  12 12" xmlns="http://www.w3.org/2000/svg">
  <path d="M 794 705  C 797.36 705  800 707.64  800 711  C 800 714.36  797.36 717  794 717  C 790.64 717  788 714.36  788 711  C 788 707.64  790.64 705  794 705  Z " fill-rule="nonzero" fill="#f0f0f0" stroke="none" />
  <path d="M 794 705.5  C 797.08 705.5  799.5 707.92  799.5 711  C 799.5 714.08  797.08 716.5  794 716.5  C 790.92 716.5  788.5 714.08  788.5 711  C 788.5 707.92  790.92 705.5  794 705.5  Z " stroke-width="1" stroke="#797979" fill="none" />
  <path d="M 794 714  C 792.32 714  791 712.68  791 711  C 791 709.32  792.32 708  794 708  C 795.68 708  797 709.32  797 711  C 797 712.68  795.68 714  794 714  " fill-rule="nonzero" fill="#797979" stroke="none" />
</svg>