<?xml version="1.0" encoding="utf-8"?>
<svg version="1.1" xmlns:xlink="http://www.w3.org/1999/xlink" width="12px" height="12px" viewBox="795 437  12 12" xmlns="http://www.w3.org/2000/svg">
  <path d="M 801 437  C 804.36 437  807 439.64  807 443  C 807 446.36  804.36 449  801 449  C 797.64 449  795 446.36  795 443  C 795 439.64  797.64 437  801 437  Z " fill-rule="nonzero" fill="#ffffff" stroke="none" />
  <path d="M 801 437.5  C 804.08 437.5  806.5 439.92  806.5 443  C 806.5 446.08  804.08 448.5  801 448.5  C 797.92 448.5  795.5 446.08  795.5 443  C 795.5 439.92  797.92 437.5  801 437.5  Z " stroke-width="1" stroke="#797979" fill="none" />
  <path d="M 801 446  C 799.32 446  798 444.68  798 443  C 798 441.32  799.32 440  801 440  C 802.68 440  804 441.32  804 443  C 804 444.68  802.68 446  801 446  " fill-rule="nonzero" fill="#797979" stroke="none" />
</svg>