<?xml version="1.0" encoding="utf-8"?>
<svg version="1.1" xmlns:xlink="http://www.w3.org/1999/xlink" width="12px" height="12px" viewBox="795 464  12 12" xmlns="http://www.w3.org/2000/svg">
  <path d="M 801 464  C 804.36 464  807 466.64  807 470  C 807 473.36  804.36 476  801 476  C 797.64 476  795 473.36  795 470  C 795 466.64  797.64 464  801 464  Z " fill-rule="nonzero" fill="#ffffff" stroke="none" />
  <path d="M 801 464.5  C 804.08 464.5  806.5 466.92  806.5 470  C 806.5 473.08  804.08 475.5  801 475.5  C 797.92 475.5  795.5 473.08  795.5 470  C 795.5 466.92  797.92 464.5  801 464.5  Z " stroke-width="1" stroke="#797979" fill="none" />
  <path d="M 801 473  C 799.32 473  798 471.68  798 470  C 798 468.32  799.32 467  801 467  C 802.68 467  804 468.32  804 470  C 804 471.68  802.68 473  801 473  " fill-rule="nonzero" fill="#797979" stroke="none" />
</svg>