<?xml version="1.0" encoding="utf-8"?>
<svg version="1.1" xmlns:xlink="http://www.w3.org/1999/xlink" width="217px" height="26px" xmlns="http://www.w3.org/2000/svg">
  <defs>
    <mask fill="white" id="clip18">
      <path d="M 0 26  L 0 0  L 103 0  L 217 0  L 217 26  L 92 26  L 0 26  Z " fill-rule="evenodd" />
    </mask>
  </defs>
  <g transform="matrix(1 0 0 1 -323 -54 )">
    <path d="M 0 26  L 0 0  L 103 0  L 217 0  L 217 26  L 92 26  L 0 26  Z " fill-rule="nonzero" fill="#d7d7d7" stroke="none" transform="matrix(1 0 0 1 323 54 )" />
    <path d="M 0 26  L 0 0  L 103 0  L 217 0  L 217 26  L 92 26  L 0 26  Z " stroke-width="2" stroke="#797979" fill="none" transform="matrix(1 0 0 1 323 54 )" mask="url(#clip18)" />
  </g>
</svg>