<?xml version="1.0" encoding="utf-8"?>
<svg version="1.1" xmlns:xlink="http://www.w3.org/1999/xlink" width="150px" height="10px" preserveAspectRatio="xMinYMid meet" viewBox="251 136  150 8" xmlns="http://www.w3.org/2000/svg">
  <path d="M 257 140  L 390 140  " stroke-width="2" stroke-dasharray="18,8" stroke="#02a7f0" fill="none" />
  <path d="M 254.5 136.5  A 3.5 3.5 0 0 0 251 140 A 3.5 3.5 0 0 0 254.5 143.5 A 3.5 3.5 0 0 0 258 140 A 3.5 3.5 0 0 0 254.5 136.5 Z M 254.5 138.5  A 1.5 1.5 0 0 1 256 140 A 1.5 1.5 0 0 1 254.5 141.5 A 1.5 1.5 0 0 1 253 140 A 1.5 1.5 0 0 1 254.5 138.5 Z M 389 147.6  L 396 140  L 389 132.4  L 389 147.6  Z " fill-rule="nonzero" fill="#02a7f0" stroke="none" />
</svg>