<?xml version="1.0" encoding="utf-8"?>
<svg version="1.1" xmlns:xlink="http://www.w3.org/1999/xlink" width="202px" height="10px" preserveAspectRatio="xMinYMid meet" viewBox="467 310  202 8" xmlns="http://www.w3.org/2000/svg">
  <path d="M 664 257  L 664 309  A 5 5 0 0 1 659 314 L 473 314  " stroke-width="2" stroke-dasharray="18,8" stroke="#02a7f0" fill="none" />
  <path d="M 664 251  A 3.5 3.5 0 0 0 660.5 254.5 A 3.5 3.5 0 0 0 664 258 A 3.5 3.5 0 0 0 667.5 254.5 A 3.5 3.5 0 0 0 664 251 Z M 664 253  A 1.5 1.5 0 0 1 665.5 254.5 A 1.5 1.5 0 0 1 664 256 A 1.5 1.5 0 0 1 662.5 254.5 A 1.5 1.5 0 0 1 664 253 Z M 474 306.4  L 467 314  L 474 321.6  L 474 306.4  Z " fill-rule="nonzero" fill="#02a7f0" stroke="none" />
</svg>