<?xml version="1.0" encoding="utf-8"?>
<svg version="1.1" xmlns:xlink="http://www.w3.org/1999/xlink" width="185px" height="10px" preserveAspectRatio="xMinYMid meet" viewBox="211 687  185 8" xmlns="http://www.w3.org/2000/svg">
  <path d="M 390 691  L 221 691  A 5 5 0 0 0 216 696 L 216 714  " stroke-width="2" stroke-dasharray="18,8" stroke="#02a7f0" fill="none" />
  <path d="M 392.5 687.5  A 3.5 3.5 0 0 0 389 691 A 3.5 3.5 0 0 0 392.5 694.5 A 3.5 3.5 0 0 0 396 691 A 3.5 3.5 0 0 0 392.5 687.5 Z M 392.5 689.5  A 1.5 1.5 0 0 1 394 691 A 1.5 1.5 0 0 1 392.5 692.5 A 1.5 1.5 0 0 1 391 691 A 1.5 1.5 0 0 1 392.5 689.5 Z M 208.4 713  L 216 720  L 223.6 713  L 208.4 713  Z " fill-rule="nonzero" fill="#02a7f0" stroke="none" />
</svg>