<?xml version="1.0" encoding="utf-8"?>
<svg version="1.1" xmlns:xlink="http://www.w3.org/1999/xlink" width="10px" height="117px" preserveAspectRatio="xMidYMin meet" viewBox="212 770  8 117" xmlns="http://www.w3.org/2000/svg">
  <path d="M 216 776  L 216 877  A 5 5 0 0 0 221 882 L 390 882  " stroke-width="2" stroke-dasharray="18,8" stroke="#02a7f0" fill="none" />
  <path d="M 216 770  A 3.5 3.5 0 0 0 212.5 773.5 A 3.5 3.5 0 0 0 216 777 A 3.5 3.5 0 0 0 219.5 773.5 A 3.5 3.5 0 0 0 216 770 Z M 216 772  A 1.5 1.5 0 0 1 217.5 773.5 A 1.5 1.5 0 0 1 216 775 A 1.5 1.5 0 0 1 214.5 773.5 A 1.5 1.5 0 0 1 216 772 Z M 389 889.6  L 396 882  L 389 874.4  L 389 889.6  Z " fill-rule="nonzero" fill="#02a7f0" stroke="none" />
</svg>