<?xml version="1.0" encoding="utf-8"?>
<svg version="1.1" xmlns:xlink="http://www.w3.org/1999/xlink" width="72px" height="10px" preserveAspectRatio="xMinYMid meet" viewBox="528 879  72 8" xmlns="http://www.w3.org/2000/svg">
  <path d="M 473 882  L 532.5 882  A 0.5 0.5 0 0 1 533 882.5 A 0.5 0.5 0 0 0 533.5 883 L 594 883  " stroke-width="2" stroke-dasharray="18,8" stroke="#02a7f0" fill="none" />
  <path d="M 470.5 878.5  A 3.5 3.5 0 0 0 467 882 A 3.5 3.5 0 0 0 470.5 885.5 A 3.5 3.5 0 0 0 474 882 A 3.5 3.5 0 0 0 470.5 878.5 Z M 470.5 880.5  A 1.5 1.5 0 0 1 472 882 A 1.5 1.5 0 0 1 470.5 883.5 A 1.5 1.5 0 0 1 469 882 A 1.5 1.5 0 0 1 470.5 880.5 Z M 593 890.6  L 600 883  L 593 875.4  L 593 890.6  Z " fill-rule="nonzero" fill="#02a7f0" stroke="none" />
</svg>