<?xml version="1.0" encoding="utf-8"?>
<svg version="1.1" xmlns:xlink="http://www.w3.org/1999/xlink" width="20px" height="21px" preserveAspectRatio="xMidYMin meet" viewBox="648 915  18 21" xmlns="http://www.w3.org/2000/svg">
  <path d="M 657 928  L 657 986  A 5 5 0 0 1 652 991 L 473 991  " stroke-width="2" stroke-dasharray="18,8" stroke="#02a7f0" fill="none" />
  <path d="M 657 922  A 3.5 3.5 0 0 0 653.5 925.5 A 3.5 3.5 0 0 0 657 929 A 3.5 3.5 0 0 0 660.5 925.5 A 3.5 3.5 0 0 0 657 922 Z M 657 924  A 1.5 1.5 0 0 1 658.5 925.5 A 1.5 1.5 0 0 1 657 927 A 1.5 1.5 0 0 1 655.5 925.5 A 1.5 1.5 0 0 1 657 924 Z M 474 983.4  L 467 991  L 474 998.6  L 474 983.4  Z " fill-rule="nonzero" fill="#02a7f0" stroke="none" />
</svg>