<?xml version="1.0" encoding="utf-8"?>
<svg version="1.1" xmlns:xlink="http://www.w3.org/1999/xlink" width="20px" height="20px" preserveAspectRatio="xMinYMid meet" viewBox="381 1118  20 18" xmlns="http://www.w3.org/2000/svg">
  <path d="M 216 1077  L 216 1122  A 5 5 0 0 0 221 1127 L 390 1127  " stroke-width="2" stroke-dasharray="18,8" stroke="#02a7f0" fill="none" />
  <path d="M 216 1071  A 3.5 3.5 0 0 0 212.5 1074.5 A 3.5 3.5 0 0 0 216 1078 A 3.5 3.5 0 0 0 219.5 1074.5 A 3.5 3.5 0 0 0 216 1071 Z M 216 1073  A 1.5 1.5 0 0 1 217.5 1074.5 A 1.5 1.5 0 0 1 216 1076 A 1.5 1.5 0 0 1 214.5 1074.5 A 1.5 1.5 0 0 1 216 1073 Z M 389 1134.6  L 396 1127  L 389 1119.4  L 389 1134.6  Z " fill-rule="nonzero" fill="#02a7f0" stroke="none" />
</svg>