<?xml version="1.0" encoding="utf-8"?>
<svg version="1.1" xmlns:xlink="http://www.w3.org/1999/xlink" width="159px" height="10px" preserveAspectRatio="xMinYMid meet" viewBox="467 1123  159 8" xmlns="http://www.w3.org/2000/svg">
  <path d="M 615 1127  L 473 1127  " stroke-width="2" stroke-dasharray="18,8" stroke="#02a7f0" fill="none" />
  <path d="M 617.5 1123.5  A 3.5 3.5 0 0 0 614 1127 A 3.5 3.5 0 0 0 617.5 1130.5 A 3.5 3.5 0 0 0 621 1127 A 3.5 3.5 0 0 0 617.5 1123.5 Z M 617.5 1125.5  A 1.5 1.5 0 0 1 619 1127 A 1.5 1.5 0 0 1 617.5 1128.5 A 1.5 1.5 0 0 1 616 1127 A 1.5 1.5 0 0 1 617.5 1125.5 Z M 474 1119.4  L 467 1127  L 474 1134.6  L 474 1119.4  Z " fill-rule="nonzero" fill="#02a7f0" stroke="none" />
</svg>