<?xml version="1.0" encoding="utf-8"?>
<svg version="1.1" xmlns:xlink="http://www.w3.org/1999/xlink" width="20px" height="21px" preserveAspectRatio="xMidYMin meet" viewBox="648 1145  18 21" xmlns="http://www.w3.org/2000/svg">
  <path d="M 657 1158  L 657 1212  A 5 5 0 0 1 652 1217 L 473 1217  " stroke-width="2" stroke-dasharray="18,8" stroke="#02a7f0" fill="none" />
  <path d="M 657 1152  A 3.5 3.5 0 0 0 653.5 1155.5 A 3.5 3.5 0 0 0 657 1159 A 3.5 3.5 0 0 0 660.5 1155.5 A 3.5 3.5 0 0 0 657 1152 Z M 657 1154  A 1.5 1.5 0 0 1 658.5 1155.5 A 1.5 1.5 0 0 1 657 1157 A 1.5 1.5 0 0 1 655.5 1155.5 A 1.5 1.5 0 0 1 657 1154 Z M 474 1209.4  L 467 1217  L 474 1224.6  L 474 1209.4  Z " fill-rule="nonzero" fill="#02a7f0" stroke="none" />
</svg>