<?xml version="1.0" encoding="utf-8"?>
<svg version="1.1" xmlns:xlink="http://www.w3.org/1999/xlink" width="20px" height="21px" preserveAspectRatio="xMidYMin meet" viewBox="207 284  18 21" xmlns="http://www.w3.org/2000/svg">
  <path d="M 216 297  L 216 400  A 5 5 0 0 0 221 405 L 390 405  " stroke-width="2" stroke-dasharray="18,8" stroke="#02a7f0" fill="none" />
  <path d="M 216 291  A 3.5 3.5 0 0 0 212.5 294.5 A 3.5 3.5 0 0 0 216 298 A 3.5 3.5 0 0 0 219.5 294.5 A 3.5 3.5 0 0 0 216 291 Z M 216 293  A 1.5 1.5 0 0 1 217.5 294.5 A 1.5 1.5 0 0 1 216 296 A 1.5 1.5 0 0 1 214.5 294.5 A 1.5 1.5 0 0 1 216 293 Z M 389 412.6  L 396 405  L 389 397.4  L 389 412.6  Z " fill-rule="nonzero" fill="#02a7f0" stroke="none" />
</svg>