<?xml version="1.0" encoding="utf-8"?>
<svg version="1.1" xmlns:xlink="http://www.w3.org/1999/xlink" width="10px" height="64px" preserveAspectRatio="xMidYMin meet" viewBox="674 400  8 64" xmlns="http://www.w3.org/2000/svg">
  <path d="M 473 405  L 673 405  A 5 5 0 0 1 678 410 L 678 458  " stroke-width="2" stroke-dasharray="18,8" stroke="#02a7f0" fill="none" />
  <path d="M 470.5 401.5  A 3.5 3.5 0 0 0 467 405 A 3.5 3.5 0 0 0 470.5 408.5 A 3.5 3.5 0 0 0 474 405 A 3.5 3.5 0 0 0 470.5 401.5 Z M 470.5 403.5  A 1.5 1.5 0 0 1 472 405 A 1.5 1.5 0 0 1 470.5 406.5 A 1.5 1.5 0 0 1 469 405 A 1.5 1.5 0 0 1 470.5 403.5 Z M 670.4 457  L 678 464  L 685.6 457  L 670.4 457  Z " fill-rule="nonzero" fill="#02a7f0" stroke="none" />
</svg>