<?xml version="1.0" encoding="utf-8"?>
<svg version="1.1" xmlns:xlink="http://www.w3.org/1999/xlink" width="75px" height="10px" preserveAspectRatio="xMinYMid meet" viewBox="251 510  75 8" xmlns="http://www.w3.org/2000/svg">
  <path d="M 385 489  L 326 489  A 5 5 0 0 0 321 494 L 321 509  A 5 5 0 0 1 316 514 L 257 514  " stroke-width="2" stroke-dasharray="18,8" stroke="#02a7f0" fill="none" />
  <path d="M 387.5 485.5  A 3.5 3.5 0 0 0 384 489 A 3.5 3.5 0 0 0 387.5 492.5 A 3.5 3.5 0 0 0 391 489 A 3.5 3.5 0 0 0 387.5 485.5 Z M 387.5 487.5  A 1.5 1.5 0 0 1 389 489 A 1.5 1.5 0 0 1 387.5 490.5 A 1.5 1.5 0 0 1 386 489 A 1.5 1.5 0 0 1 387.5 487.5 Z M 258 506.4  L 251 514  L 258 521.6  L 258 506.4  Z " fill-rule="nonzero" fill="#02a7f0" stroke="none" />
</svg>