<?xml version="1.0" encoding="utf-8"?>
<svg version="1.1" xmlns:xlink="http://www.w3.org/1999/xlink" width="10px" height="89px" preserveAspectRatio="xMidYMin meet" viewBox="212 400  8 89" xmlns="http://www.w3.org/2000/svg">
  <path d="M 216 483  L 216 410  A 5 5 0 0 1 221 405 L 390 405  " stroke-width="2" stroke-dasharray="18,8" stroke="#02a7f0" fill="none" />
  <path d="M 216 482  A 3.5 3.5 0 0 0 212.5 485.5 A 3.5 3.5 0 0 0 216 489 A 3.5 3.5 0 0 0 219.5 485.5 A 3.5 3.5 0 0 0 216 482 Z M 216 484  A 1.5 1.5 0 0 1 217.5 485.5 A 1.5 1.5 0 0 1 216 487 A 1.5 1.5 0 0 1 214.5 485.5 A 1.5 1.5 0 0 1 216 484 Z M 389 412.6  L 396 405  L 389 397.4  L 389 412.6  Z " fill-rule="nonzero" fill="#02a7f0" stroke="none" />
</svg>