<?xml version="1.0" encoding="utf-8"?>
<svg version="1.1" xmlns:xlink="http://www.w3.org/1999/xlink" width="96px" height="80px" xmlns="http://www.w3.org/2000/svg">
  <g transform="matrix(1 0 0 1 -194 -220 )">
    <path d="M 194 220  L 290 220  L 290 300  L 194 300  L 194 220  " fill-rule="nonzero" fill="#cccccc" stroke="none" />
    <path d="M 200 226  L 284 226  L 284 294  L 200 294  L 200 226  " fill-rule="nonzero" fill="#ffffff" stroke="none" />
    <path d="M 249.92 244  C 246.56 244  243.92 241.36  243.92 238  C 243.92 234.64  246.56 232  249.92 232  C 253.28 232  255.92 234.64  255.92 238  C 255.92 241.36  253.28 244  249.92 244  " fill-rule="nonzero" fill="#cccccc" stroke="none" />
    <path d="M 202 292  L 202 256.8  L 222 240.8  L 250 260  L 266 250.4  L 282 260  L 282 292  L 202 292  " fill-rule="nonzero" fill="#169bd5" stroke="none" />
  </g>
</svg>