<?xml version="1.0" encoding="utf-8"?>
<svg version="1.1" xmlns:xlink="http://www.w3.org/1999/xlink" width="9px" height="14px" xmlns="http://www.w3.org/2000/svg">
  <g transform="matrix(1 0 0 1 -36 -190 )">
    <path d="M 6.0908203125 6.31640625  C 6.5302734375 5.86067708333334  6.75 5.31076388888886  6.75 4.66666666666666  C 6.75 4.02256944444446  6.5302734375 3.47265625  6.0908203125 3.01692708333334  C 5.6513671875 2.56119791666666  5.12109375000004 2.33333333333334  4.5 2.33333333333334  C 3.87890624999996 2.33333333333334  3.3486328125 2.56119791666666  2.9091796875 3.01692708333334  C 2.4697265625 3.47265625  2.25 4.02256944444446  2.25 4.66666666666666  C 2.25 5.31076388888886  2.4697265625 5.86067708333334  2.9091796875 6.31640625  C 3.3486328125 6.77213541666666  3.87890624999996 7  4.5 7  C 5.12109375000004 7  5.6513671875 6.77213541666666  6.0908203125 6.31640625  Z M 7.681640625 1.3671875  C 8.560546875 2.27864583333334  9 3.3784722222222  9 4.66666666666666  C 9 5.32899305555554  8.9033203125 5.87282986111114  8.7099609375 6.29817708333334  L 5.5107421875 13.3528645833333  C 5.41699218749996 13.5533854166667  5.27783203125 13.7113715277778  5.09326171875 13.8268229166667  C 4.90869140625 13.9422743055555  4.7109375 14  4.5 14  C 4.2890625 14  4.09130859375 13.9422743055555  3.90673828125 13.8268229166667  C 3.72216796875 13.7113715277778  3.5859375 13.5533854166667  3.498046875 13.3528645833333  L 0.2900390625 6.29817708333334  C 0.0966796875 5.87282986111114  0 5.32899305555554  0 4.66666666666666  C 0 3.3784722222222  0.439453125 2.27864583333334  1.318359375 1.3671875  C 2.197265625 0.455729166666657  3.25781250000004 0  4.5 0  C 5.74218749999996 0  6.802734375 0.455729166666657  7.681640625 1.3671875  Z " fill-rule="nonzero" fill="#ffffff" stroke="none" transform="matrix(1 0 0 1 36 190 )" />
  </g>
</svg>