<?xml version="1.0" encoding="utf-8"?>
<svg version="1.1" xmlns:xlink="http://www.w3.org/1999/xlink" width="12px" height="11px" xmlns="http://www.w3.org/2000/svg">
  <g transform="matrix(1 0 0 1 -67 -9 )">
    <path d="M 1.65401785714286 8.82084780092592  C 1.69419642857143 8.86190682870369  1.71428571428569 8.9143711419753  1.71428571428569 8.97824074074074  L 1.71428571428569 10.2921296296296  C 1.71428571428569 10.3559992283951  1.69419642857143 10.4084635416667  1.65401785714286 10.4495225694444  C 1.61383928571431 10.4905815972222  1.56250000000001 10.5111111111111  1.5 10.5111111111111  L 0.214285714285694 10.5111111111111  C 0.151785714285722 10.5111111111111  0.100446428571431 10.4905815972222  0.0602678571428612 10.4495225694444  C 0.020089285714306 10.4084635416667  0 10.3559992283951  0 10.2921296296296  L 0 8.97824074074074  C 0 8.9143711419753  0.020089285714306 8.86190682870369  0.0602678571428612 8.82084780092592  C 0.100446428571431 8.77978877314815  0.151785714285722 8.75925925925925  0.214285714285694 8.75925925925925  L 1.5 8.75925925925925  C 1.56250000000001 8.75925925925925  1.61383928571431 8.77978877314815  1.65401785714286 8.82084780092592  Z M 4.22544642857143 7.94492187499999  C 4.265625 7.98598090277777  4.28571428571431 8.03844521604937  4.28571428571431 8.10231481481481  L 4.28571428571431 10.2921296296296  C 4.28571428571431 10.3559992283951  4.265625 10.4084635416667  4.22544642857143 10.4495225694444  C 4.18526785714286 10.4905815972222  4.13392857142858 10.5111111111111  4.07142857142857 10.5111111111111  L 2.78571428571431 10.5111111111111  C 2.72321428571429 10.5111111111111  2.671875 10.4905815972222  2.63169642857143 10.4495225694444  C 2.59151785714286 10.4084635416667  2.57142857142857 10.3559992283951  2.57142857142857 10.2921296296296  L 2.57142857142857 8.10231481481481  C 2.57142857142857 8.03844521604937  2.59151785714286 7.98598090277777  2.63169642857143 7.94492187499999  C 2.671875 7.90386284722222  2.72321428571429 7.88333333333332  2.78571428571431 7.88333333333332  L 4.07142857142857 7.88333333333332  C 4.13392857142858 7.88333333333332  4.18526785714286 7.90386284722222  4.22544642857143 7.94492187499999  Z M 6.796875 6.19307002314814  C 6.83705357142857 6.23412905092591  6.85714285714286 6.28659336419751  6.85714285714286 6.35046296296296  L 6.85714285714286 10.2921296296296  C 6.85714285714286 10.3559992283951  6.83705357142857 10.4084635416667  6.796875 10.4495225694444  C 6.75669642857143 10.4905815972222  6.70535714285714 10.5111111111111  6.64285714285714 10.5111111111111  L 5.35714285714286 10.5111111111111  C 5.29464285714286 10.5111111111111  5.24330357142857 10.4905815972222  5.203125 10.4495225694444  C 5.16294642857143 10.4084635416667  5.14285714285714 10.3559992283951  5.14285714285714 10.2921296296296  L 5.14285714285714 6.35046296296296  C 5.14285714285714 6.28659336419751  5.16294642857143 6.23412905092591  5.203125 6.19307002314814  C 5.24330357142857 6.15201099537036  5.29464285714286 6.13148148148146  5.35714285714286 6.13148148148146  L 6.64285714285714 6.13148148148146  C 6.70535714285714 6.13148148148146  6.75669642857143 6.15201099537036  6.796875 6.19307002314814  Z M 9.36830357142857 3.56529224537035  C 9.40848214285714 3.60635127314816  9.42857142857143 3.65881558641976  9.42857142857143 3.72268518518517  L 9.42857142857143 10.2921296296296  C 9.42857142857143 10.3559992283951  9.40848214285714 10.4084635416667  9.36830357142857 10.4495225694444  C 9.328125 10.4905815972222  9.27678571428571 10.5111111111111  9.21428571428569 10.5111111111111  L 7.92857142857143 10.5111111111111  C 7.86607142857142 10.5111111111111  7.81473214285714 10.4905815972222  7.77455357142857 10.4495225694444  C 7.734375 10.4084635416667  7.71428571428569 10.3559992283951  7.71428571428569 10.2921296296296  L 7.71428571428569 3.72268518518517  C 7.71428571428569 3.65881558641976  7.734375 3.60635127314816  7.77455357142857 3.56529224537035  C 7.81473214285714 3.52423321759258  7.86607142857142 3.50370370370371  7.92857142857143 3.50370370370371  L 9.21428571428569 3.50370370370371  C 9.27678571428571 3.50370370370371  9.328125 3.52423321759258  9.36830357142857 3.56529224537035  Z M 11.9397321428571 0.0615885416666728  C 11.9799107142857 0.102647569444445  12 0.155111882716049  12 0.218981481481491  L 12 10.2921296296296  C 12 10.3559992283951  11.9799107142857 10.4084635416667  11.9397321428571 10.4495225694444  C 11.8995535714286 10.4905815972222  11.8482142857143 10.5111111111111  11.7857142857143 10.5111111111111  L 10.5 10.5111111111111  C 10.4375 10.5111111111111  10.3861607142857 10.4905815972222  10.3459821428571 10.4495225694444  C 10.3058035714286 10.4084635416667  10.2857142857143 10.3559992283951  10.2857142857143 10.2921296296296  L 10.2857142857143 0.218981481481491  C 10.2857142857143 0.155111882716049  10.3058035714286 0.102647569444445  10.3459821428571 0.0615885416666728  C 10.3861607142857 0.0205295138889028  10.4375 0  10.5 0  L 11.7857142857143 0  C 11.8482142857143 0  11.8995535714286 0.0205295138889028  11.9397321428571 0.0615885416666728  Z " fill-rule="nonzero" fill="#ffffff" stroke="none" transform="matrix(1 0 0 1 67 9 )" />
  </g>
</svg>