<?xml version="1.0" encoding="utf-8"?>
<svg version="1.1" xmlns:xlink="http://www.w3.org/1999/xlink" width="14px" height="11px" xmlns="http://www.w3.org/2000/svg">
  <g transform="matrix(1 0 0 1 -88 -11 )">
    <path d="M 7.66293279022403 10.0036129032258  C 7.31602172437204 10.3745376344086  7.0950441276307 10.56  7 10.56  C 6.90495587236933 10.56  6.68397827562796 10.3745376344086  6.33706720977597 10.0036129032258  C 5.99015614392397 9.632688172043  5.81670061099794 9.39675985663082  5.81670061099794 9.29582795698921  C 5.81670061099794 9.13433691756271  5.96520706042094 8.99807885304659  6.26221995926679 8.88705376344087  C 6.55923285811269 8.7760286738351  6.80515953835709 8.72051612903225  7 8.72051612903225  C 7.19484046164291 8.72051612903225  7.44076714188731 8.7760286738351  7.73778004073321 8.88705376344087  C 8.03479293957906 8.99807885304659  8.18329938900206 9.13433691756271  8.18329938900206 9.29582795698921  C 8.18329938900206 9.39675985663082  8.00984385607603 9.632688172043  7.66293279022403 10.0036129032258  Z M 9.59114052953157 7.94081720430107  C 9.23234894772574 8.31931182795697  9.01018329938901 8.50855913978492  8.92464358452139 8.50855913978492  C 8.91513917175831 8.50855913978492  8.82009504412764 8.44547670250895  8.63951120162935 8.31931182795697  C 8.458927359131 8.19314695340499  8.21775288526817 8.06698207885304  7.91598778004075 7.94081720430107  C 7.61422267481331 7.81465232974909  7.30889341479974 7.75156989247311  7 7.75156989247311  C 6.69110658520026 7.75156989247311  6.38577732518669 7.81465232974909  6.08401221995925 7.94081720430107  C 5.78224711473183 8.06698207885304  5.54226069246437 8.19314695340499  5.36405295315683 8.31931182795697  C 5.18584521384929 8.44547670250895  5.0896130346232 8.50855913978492  5.07535641547861 8.50855913978492  C 4.98981670061099 8.50855913978492  4.76765105227426 8.31931182795697  4.40885947046843 7.94081720430107  C 4.0500678886626 7.56232258064517  3.87067209775967 7.3276559139785  3.87067209775967 7.23681720430108  C 3.87067209775967 7.17121146953403  3.89443312966736 7.11317562724013  3.94195519348267 7.06270967741935  C 4.31262729124239 6.67412186379926  4.7783435166327 6.36880286738351  5.33910386965374 6.14675268817204  C 5.89986422267484 5.92470250896056  6.45349626612355 5.81367741935485  7 5.81367741935485  C 7.54650373387645 5.81367741935485  8.10013577732516 5.92470250896056  8.66089613034626 6.14675268817204  C 9.2216564833673 6.36880286738351  9.68737270875761 6.67412186379926  10.0580448065173 7.06270967741935  C 10.1055668703326 7.11317562724013  10.1293279022403 7.17121146953403  10.1293279022403 7.23681720430108  C 10.1293279022403 7.3276559139785  9.9499321113374 7.56232258064517  9.59114052953157 7.94081720430107  Z M 11.5264765784114 5.88180645161289  C 11.1700610997963 6.26030107526879  10.9514596062457 6.44954838709675  10.8706720977597 6.44954838709675  C 10.8183978275628 6.44954838709675  10.7637474541752 6.42936200716844  10.7067209775967 6.38898924731181  C 10.0604209097081 5.85909677419356  9.46164290563476 5.46924731182794  8.9103869653768 5.21944086021506  C 8.35913102511881 4.96963440860213  7.7223353699932 4.84473118279571  7 4.84473118279571  C 6.59606245756959 4.84473118279571  6.19093686354378 4.90024372759857  5.78462321792259 5.01126881720429  C 5.37830957230145 5.12229390681005  5.0242701968771 5.2560286738351  4.72250509164971 5.41247311827956  C 4.42073998642226 5.56891756272399  4.1510522742702 5.72536200716846  3.91344195519349 5.88180645161289  C 3.67583163611675 6.03825089605736  3.48811948404617 6.17198566308241  3.35030549898164 6.28301075268817  C 3.21249151391717 6.39403584229388  3.13883231500341 6.44954838709675  3.12932790224033 6.44954838709675  C 3.04854039375425 6.44954838709675  2.82993890020367 6.26030107526879  2.4735234215886 5.88180645161289  C 2.11710794297355 5.50331182795699  1.93890020366601 5.26864516129032  1.93890020366601 5.1778064516129  C 1.93890020366601 5.11724731182793  1.96266123557365 5.06173476702507  2.01018329938901 5.01126881720429  C 2.63747454175152 4.3451182795699  3.397827562797 3.82784229390679  4.29124236252548 3.45944086021504  C 5.1846571622539 3.09103942652328  6.08757637474542 2.9068387096774  7 2.9068387096774  C 7.91242362525458 2.9068387096774  8.8153428377461 3.09103942652328  9.70875763747452 3.45944086021504  C 10.602172437203 3.82784229390679  11.3625254582485 4.3451182795699  11.989816700611 5.01126881720429  C 12.0373387644263 5.06173476702507  12.061099796334 5.11724731182793  12.061099796334 5.1778064516129  C 12.061099796334 5.26864516129032  11.8828920570265 5.50331182795699  11.5264765784114 5.88180645161289  Z M 13.4618126272913 3.83036559139783  C 13.1030210454854 4.20886021505377  12.8832315003394 4.39810752688172  12.8024439918534 4.39810752688172  C 12.7501697216565 4.39810752688172  12.6978954514596 4.37539784946235  12.6456211812627 4.32997849462364  C 11.7949762389681 3.53766308243727  10.9122539035981 2.94090322580645  9.99745417515277 2.53969892473116  C 9.08265444670738 2.13849462365593  8.08350305498979 1.93789247311827  7 1.93789247311827  C 5.91649694501021 1.93789247311827  4.91734555329262 2.13849462365593  4.00254582484723 2.53969892473116  C 3.0877460964019 2.94090322580645  2.20502376103192 3.53766308243727  1.35437881873727 4.32997849462364  C 1.3021045485404 4.37539784946235  1.24983027834352 4.39810752688172  1.19755600814662 4.39810752688172  C 1.11676849966054 4.39810752688172  0.896978954514594 4.20886021505377  0.538187372708762 3.83036559139783  C 0.17939579090293 3.45187096774192  0 3.21720430107526  0 3.12636559139784  C 0 3.06075985663083  0.023761031907668 3.0027240143369  0.071283095723004 2.95225806451611  C 0.95994568906994 2.01359139784947  2.01731160896131 1.2868817204301  3.24338085539716 0.772129032258071  C 4.46945010183299 0.257376344086039  5.7216564833673 0  7 0  C 8.2783435166327 0  9.53054989816701 0.257376344086039  10.7566191446028 0.772129032258071  C 11.9826883910387 1.2868817204301  13.0400543109301 2.01359139784947  13.928716904277 2.95225806451611  C 13.9762389680923 3.0027240143369  14 3.06075985663083  14 3.12636559139784  C 14 3.21720430107526  13.8206042090971 3.45187096774192  13.4618126272913 3.83036559139783  Z " fill-rule="nonzero" fill="#ffffff" stroke="none" transform="matrix(1 0 0 1 88 11 )" />
  </g>
</svg>