<?xml version="1.0" encoding="utf-8"?>
<svg version="1.1" xmlns:xlink="http://www.w3.org/1999/xlink" width="18px" height="11px" xmlns="http://www.w3.org/2000/svg">
  <g transform="matrix(1 0 0 1 -308 -9 )">
    <path d="M 6 8.21333333333333  L 1.99999999999994 8.21333333333333  L 1.99999999999994 2.05333333333333  L 6 2.05333333333333  L 6 8.21333333333333  Z M 16.9999999999999 1.28333333333333  L 16.9999999999999 2.56666666666667  C 17.2760416666667 2.56666666666667  17.5117187500001 2.66692708333333  17.70703125 2.86744791666667  C 17.9023437499999 3.06796875  18 3.30993055555555  18 3.59333333333333  L 18 6.67333333333334  C 18 6.95673611111111  17.9023437499999 7.19869791666666  17.70703125 7.39921875  C 17.5117187500001 7.59973958333333  17.2760416666667 7.7  16.9999999999999 7.7  L 16.9999999999999 8.98333333333333  C 16.9999999999999 9.33625  16.8776041666667 9.63836805555555  16.6328125000001 9.88968749999999  C 16.3880208333334 10.1410069444444  16.0937500000001 10.2666666666667  15.75 10.2666666666667  L 1.24999999999994 10.2666666666667  C 0.906250000000057 10.2666666666667  0.611979166666686 10.1410069444444  0.367187500000057 9.88968749999999  C 0.122395833333371 9.63836805555555  0 9.33625  0 8.98333333333333  L 0 1.28333333333333  C 0 0.930416666666662  0.122395833333371 0.628298611111113  0.367187500000057 0.376979166666663  C 0.611979166666686 0.12565972222222  0.906250000000057 0  1.24999999999994 0  L 15.75 0  C 16.0937500000001 0  16.3880208333334 0.12565972222222  16.6328125000001 0.376979166666663  C 16.8776041666667 0.628298611111113  16.9999999999999 0.930416666666662  16.9999999999999 1.28333333333333  Z M 16.0000000000001 6.67333333333334  L 16.9999999999999 6.67333333333334  L 16.9999999999999 3.59333333333333  L 16.0000000000001 3.59333333333333  L 16.0000000000001 1.28333333333333  C 16.0000000000001 1.20847222222222  15.9765625000001 1.14697916666667  15.9296875000001 1.09885416666667  C 15.8828125000001 1.05072916666667  15.8229166666667 1.02666666666666  15.75 1  L 1.24999999999994 1  C 1.17708333333337 1.02666666666666  1.11718750000006 1.05072916666667  1.07031250000006 1.09885416666667  C 1.02343750000006 1.14697916666667  1.00000000000006 1.20847222222222  1.00000000000006 1.28333333333333  L 1.00000000000006 8.98333333333333  C 1.00000000000006 9.05819444444444  1.02343750000006 9.1196875  1.07031250000006 9.1678125  C 1.11718750000006 9.2159375  1.17708333333337 9.24  1.24999999999994 9.24  L 15.75 9.24  C 15.8229166666667 9.24  15.8828125000001 9.2159375  15.9296875000001 9.1678125  C 15.9765625000001 9.1196875  16.0000000000001 9.05819444444444  16.0000000000001 8.98333333333333  L 16.0000000000001 6.67333333333334  Z " fill-rule="nonzero" fill="#ffffff" stroke="none" transform="matrix(1 0 0 1 308 9 )" />
  </g>
</svg>