<?xml version="1.0" encoding="utf-8"?>
<svg version="1.1" xmlns:xlink="http://www.w3.org/1999/xlink" width="9px" height="17px" xmlns="http://www.w3.org/2000/svg">
  <g transform="matrix(1 0 0 1 -22 -39 )">
    <path d="M 8.84536082474225 1.00693998835109  C 8.94845360824742 1.118822209279  9 1.24748676334607  9 1.39293365055234  C 9 1.5383805377586  8.94845360824742 1.6670450918257  8.84536082474225 1.77892731275358  L 2.76804123711341 8.3743842364532  L 8.84536082474225 14.9698411601528  C 8.94845360824742 15.0817233810807  9 15.2103879351478  9 15.3558348223541  C 9 15.5012817095603  8.94845360824742 15.6299462636274  8.84536082474225 15.7418284845553  L 8.0721649484536 16.5809451415145  C 7.96907216494843 16.6928273624425  7.85051546391752 16.7487684729064  7.71649484536081 16.7487684729064  C 7.58247422680411 16.7487684729064  7.46391752577319 16.6928273624425  7.36082474226803 16.5809451415145  L 0.154639175257747 8.76037789865446  C 0.0515463917525842 8.64849567772654  0 8.51983112365949  0 8.3743842364532  C 0 8.22893734924692  0.0515463917525842 8.10027279517985  0.154639175257747 7.98839057425194  L 7.36082474226803 0.167823331391851  C 7.46391752577319 0.055941110463948  7.58247422680411 0  7.71649484536081 0  C 7.85051546391752 0  7.96907216494843 0.055941110463948  8.0721649484536 0.167823331391851  L 8.84536082474225 1.00693998835109  Z " fill-rule="nonzero" fill="#555555" stroke="none" transform="matrix(1 0 0 1 22 39 )" />
  </g>
</svg>