<svg t="1629770535205" class="icon" viewBox="0 0 1024 1024" version="1.1" xmlns="http://www.w3.org/2000/svg" p-id="3358" width="200" height="200"><path d="M255.9 694.4m-74.3 0a74.3 74.3 0 1 0 148.6 0 74.3 74.3 0 1 0-148.6 0Z" fill="#ffffff" p-id="3359"></path><path d="M392.9 318.6H244.7C144.9 318.6 64 399.5 64 499.3V645c0 33.1 26.9 60 60 60h30.1c-0.4-4.2-0.6-8.5-0.5-12.8 1.3-55.9 47.9-100.8 103.8-100 55.8 0.8 100.7 46.3 100.7 102.3 0 3.5-0.2 7-0.5 10.5h35.2c33.1 0 60-26.9 60-60V378.6c0.1-33.1-26.8-60-59.9-60zM325 505.2c0 17-13.8 30.8-30.8 30.8H156.4c-17 0-30.8-13.8-30.8-30.8v-34.5c0-47.4 38.4-85.8 85.8-85.8h82.9c17 0 30.8 13.8 30.8 30.8v89.5z" fill="#ffffff" p-id="3360"></path><path d="M721.9 694.4m-74.3 0a74.3 74.3 0 1 0 148.6 0 74.3 74.3 0 1 0-148.6 0Z" fill="#ffffff" p-id="3361"></path><path d="M898.7 254.8H541.1c-33.1 0-60 26.9-60 60v330.1c0 33.1 26.9 60 60 60h79c-0.4-3.5-0.5-7-0.5-10.5 0-56.5 45.8-102.3 102.3-102.3s102.3 45.8 102.3 102.3c0 3.5-0.2 7.1-0.5 10.5h75.1c33.1 0 60-26.9 60-60V314.8c-0.1-33.1-27-60-60.1-60z" fill="#ffffff" p-id="3362"></path></svg>