<?xml version="1.0" encoding="utf-8"?>
<svg version="1.1" xmlns:xlink="http://www.w3.org/1999/xlink" width="10px" height="131px" preserveAspectRatio="xMidYMin meet" viewBox="1021 79  8 131" xmlns="http://www.w3.org/2000/svg">
  <path d="M 318 85  A 1 1 0 0 1 319 84 L 1020 84  A 5 5 0 0 1 1025 89 L 1025 200  A 5 5 0 0 0 1030 205 L 1033 205  " stroke-width="2" stroke-dasharray="6,2" stroke="#333333" fill="none" />
  <path d="M 1031.5 201.5  A 3.5 3.5 0 0 0 1028 205 A 3.5 3.5 0 0 0 1031.5 208.5 A 3.5 3.5 0 0 0 1035 205 A 3.5 3.5 0 0 0 1031.5 201.5 Z " fill-rule="nonzero" fill="#333333" stroke="none" />
</svg>