<?xml version="1.0" encoding="utf-8"?>
<svg version="1.1" xmlns:xlink="http://www.w3.org/1999/xlink" width="15px" height="10px" preserveAspectRatio="xMinYMid meet" viewBox="1145 148  15 8" xmlns="http://www.w3.org/2000/svg">
  <path d="M 1154 152  L 1153 152  A 3 3 0 0 0 1150 155 A 3 3 0 0 1 1147 158 L 1028 158  A 3 3 0 0 0 1025 155 A 3 3 0 0 0 1022 158 L 330 158  A 5 5 0 0 1 325 153 " stroke-width="2" stroke-dasharray="18,8" stroke="#333333" fill="none" />
  <path d="M 1153 159.6  L 1160 152  L 1153 144.4  L 1153 159.6  Z M 325 148  A 3.5 3.5 0 0 0 321.5 151.5 A 3.5 3.5 0 0 0 325 155 A 3.5 3.5 0 0 0 328.5 151.5 A 3.5 3.5 0 0 0 325 148 Z M 325 150  A 1.5 1.5 0 0 1 326.5 151.5 A 1.5 1.5 0 0 1 325 153 A 1.5 1.5 0 0 1 323.5 151.5 A 1.5 1.5 0 0 1 325 150 Z " fill-rule="nonzero" fill="#333333" stroke="none" />
</svg>