<?xml version="1.0" encoding="utf-8"?>
<svg version="1.1" xmlns:xlink="http://www.w3.org/1999/xlink" width="4px" height="6px" xmlns="http://www.w3.org/2000/svg">
  <g transform="matrix(1 0 0 1 -1269 -263 )">
    <path d="M 3.93127147766323 0.360721442885771  C 3.97709049255441 0.400801603206412  4 0.44689378757515  4 0.498997995991984  C 4 0.551102204408817  3.97709049255441 0.597194388777555  3.93127147766323 0.637274549098196  L 1.23024054982818 3  L 3.93127147766323 5.3627254509018  C 3.97709049255441 5.40280561122245  4 5.44889779559118  4 5.50100200400802  C 4 5.55310621242485  3.97709049255441 5.59919839679359  3.93127147766323 5.63927855711423  L 3.58762886597938 5.93987975951904  C 3.5418098510882 5.97995991983968  3.48911798396335 6  3.42955326460481 6  C 3.36998854524628 6  3.31729667812142 5.97995991983968  3.27147766323024 5.93987975951904  L 0.0687285223367698 3.13827655310621  C 0.0229095074455899 3.09819639278557  0 3.05210420841683  0 3  C 0 2.94789579158317  0.0229095074455899 2.90180360721443  0.0687285223367698 2.86172344689379  L 3.27147766323024 0.060120240480962  C 3.31729667812142 0.0200400801603204  3.36998854524628 0  3.42955326460481 0  C 3.48911798396335 0  3.5418098510882 0.0200400801603204  3.58762886597938 0.060120240480962  L 3.93127147766323 0.360721442885771  Z " fill-rule="nonzero" fill="#555555" stroke="none" transform="matrix(1 0 0 1 1269 263 )" />
  </g>
</svg>