<svg t="1586585794586" class="icon" viewBox="0 0 1024 1024" version="1.1" xmlns="http://www.w3.org/2000/svg" p-id="3666" width="200" height="200"><path d="M511.031 1022.395c281.6 0 510.395-228.795 510.395-510.395 0-19.567-14.668-34.235-34.235-34.235-19.539 0-34.207 14.668-34.207 34.235 0 243.463-197.521 440.984-440.984 440.984S71.016 755.463 71.016 512 268.537 71.016 512 71.016c19.567 0 34.235-14.668 34.235-34.207 0-19.567-14.668-34.235-34.235-34.235C231.369 2.574 2.574 231.369 2.574 512c0 281.6 227.826 510.395 508.457 510.395z" p-id="3667" fill="#515151"></path><path d="M735.896 236.267c-196.497 0-280.631 100.712-280.631 338.308v4.898c1.993 17.602 17.63 32.27 36.2 31.274 17.601-1.937 32.27-17.602 31.273-36.172 0-200.428 55.739-270.834 214.155-270.834H816.1l-29.336 29.336c-12.73 13.672-12.73 35.203 0 47.879 13.672 12.73 35.204 12.73 47.879 0l76.302-76.247c18.543-19.567 18.543-50.84 0-69.41l-76.274-76.275c-11.735-10.765-31.274-10.765-44.005 0-13.7 12.731-15.636 33.239-2.933 47.907l26.402 29.336h-78.211z" p-id="3668" fill="#515151"></path></svg>