<svg t="1629799764421" class="icon" viewBox="0 0 1024 1024" version="1.1" xmlns="http://www.w3.org/2000/svg" p-id="3110" width="200" height="200"><path d="M239.104 562.944 239.104 562.944c0-159.744 122.176-289.152 272.896-289.152s272.896 129.408 272.896 289.152l0 0 62.016 0 0 0c0-195.904-149.952-354.752-334.912-354.752-184.96 0-334.848 158.848-334.848 354.752l0 0L239.104 562.944z" p-id="3111" fill="#bfbfbf"></path><path d="M113.792 679.296c0 52.224 43.584 94.72 97.344 94.72l28.096 0L239.232 584.576 211.2 584.576C157.376 584.576 113.792 627.072 113.792 679.296z" p-id="3112" fill="#bfbfbf"></path><path d="M204.096 542.72c-75.392 0-136.512 61.12-136.512 136.576s61.12 136.512 136.512 136.512l82.688 0 0-36.736 0-4.992L286.784 584.576 286.784 542.72 204.096 542.72zM239.296 774.08 211.2 774.08c-53.76 0-97.344-42.496-97.344-94.72s43.584-94.72 97.344-94.72l28.096 0L239.296 774.08z" p-id="3113" fill="#bfbfbf"></path><path d="M812.864 584.576l-28.032 0 0 189.504 28.032 0c53.824 0 97.344-42.496 97.344-94.72S866.688 584.576 812.864 584.576z" p-id="3114" fill="#bfbfbf"></path><path d="M820.032 542.72l-82.688 0 0 41.792 0 189.504 0 4.992 0 36.736 82.688 0c75.456 0 136.512-61.056 136.512-136.512S895.424 542.72 820.032 542.72zM812.864 774.08l-28.032 0L784.832 584.576l28.032 0c53.824 0 97.344 42.496 97.344 94.72S866.688 774.08 812.864 774.08z" p-id="3115" fill="#bfbfbf"></path></svg>