<?xml version="1.0" encoding="utf-8"?>
<svg version="1.1" xmlns:xlink="http://www.w3.org/1999/xlink" width="39px" height="10px" preserveAspectRatio="xMinYMid meet" viewBox="372 835  39 8" xmlns="http://www.w3.org/2000/svg">
  <path d="M 379 839  L 401 839  A 5 5 0 0 0 406 834 L 406 464  A 5 5 0 0 1 411 459 L 440 459  " stroke-width="2" stroke-dasharray="18,8" stroke="#02a7f0" fill="none" />
  <path d="M 379.35840734641 835.5  A 3.5 3.5 0 0 0 375.85840734641 839 A 3.5 3.5 0 0 0 379.35840734641 842.5 A 3.5 3.5 0 0 0 382.85840734641 839 A 3.5 3.5 0 0 0 379.35840734641 835.5 Z M 379.35840734641 837.5  A 1.5 1.5 0 0 1 380.85840734641 839 A 1.5 1.5 0 0 1 379.35840734641 840.5 A 1.5 1.5 0 0 1 377.85840734641 839 A 1.5 1.5 0 0 1 379.35840734641 837.5 Z M 439 466.6  L 446 459  L 439 451.4  L 439 466.6  Z " fill-rule="nonzero" fill="#02a7f0" stroke="none" />
</svg>