<svg t="1599789926852" class="icon" viewBox="0 0 1024 1024" version="1.1" xmlns="http://www.w3.org/2000/svg" p-id="2951" width="200" height="200"><path d="M668.893867 661.412978s0 2.804622 0 0c16.699733 8.408178 33.402311 2.804622 38.968889-11.207111 5.566578-14.014578 2.781867-30.830933-11.133156-36.437334-22.272-14.011733-47.320178-22.419911-72.3712-30.828089 100.204089-50.446222 167.008711-154.140444 167.008711-274.653866C791.367111 137.326933 654.976 0 485.182578 0S178.998044 137.329778 178.998044 308.286578c0 120.510578 69.586489 224.207644 167.008712 274.653866C173.431467 638.993067 45.3888 801.544533 39.822222 994.924089c0 16.816356 11.133156 28.026311 27.835734 28.026311 16.699733 0 27.832889-11.209956 27.832888-28.026311 8.351289-210.195911 178.147556-378.350933 389.688889-378.350933 64.022756 0 128.042667 16.816356 183.714134 44.839822zM231.8848 305.4848c0-140.131556 111.340089-252.233956 250.513067-252.233956 139.175822 0 250.515911 112.1024 250.515911 252.233956 0 140.128711-111.340089 252.233956-250.515911 252.233956-139.172978 0-250.513067-112.105244-250.513067-252.233956zM955.591111 784.725333h-139.175822v-140.128711c0-16.816356-11.133156-28.026311-27.835733-28.026311-16.699733 0-27.832889 11.209956-27.832889 28.026311v140.128711h-139.175823c-16.699733 0-27.835733 11.209956-27.835733 28.026311s11.136 28.026311 27.835733 28.026312h139.175823v140.128711c0 16.816356 11.133156 28.026311 27.832889 28.026311 16.702578 0 27.835733-11.207111 27.835733-28.026311v-140.128711h139.175822c16.699733 0 27.835733-11.209956 27.835733-28.026312s-13.917867-28.026311-27.835733-28.026311z" p-id="2952" fill="#dbdbdb"></path></svg>