<?xml version="1.0" encoding="utf-8"?>
<svg version="1.1" xmlns:xlink="http://www.w3.org/1999/xlink" width="61px" height="10px" preserveAspectRatio="xMinYMid meet" viewBox="821 831  61 8" xmlns="http://www.w3.org/2000/svg">
  <path d="M 827 835  L 872 835  A 5 5 0 0 0 877 830 L 877 546  A 5 5 0 0 1 882 541 L 928 541  " stroke-width="2" stroke-dasharray="18,8" stroke="#02a7f0" fill="none" />
  <path d="M 824.5 831.5  A 3.5 3.5 0 0 0 821 835 A 3.5 3.5 0 0 0 824.5 838.5 A 3.5 3.5 0 0 0 828 835 A 3.5 3.5 0 0 0 824.5 831.5 Z M 824.5 833.5  A 1.5 1.5 0 0 1 826 835 A 1.5 1.5 0 0 1 824.5 836.5 A 1.5 1.5 0 0 1 823 835 A 1.5 1.5 0 0 1 824.5 833.5 Z M 927 548.6  L 934 541  L 927 533.4  L 927 548.6  Z " fill-rule="nonzero" fill="#02a7f0" stroke="none" />
</svg>