<?xml version="1.0" encoding="utf-8"?>
<svg version="1.1" xmlns:xlink="http://www.w3.org/1999/xlink" width="89px" height="10px" preserveAspectRatio="xMinYMid meet" viewBox="1385 400  89 8" xmlns="http://www.w3.org/2000/svg">
  <path d="M 1312 541  L 1385 541  A 5 5 0 0 0 1390 536 L 1390 409  A 5 5 0 0 1 1395 404 L 1468 404  " stroke-width="2" stroke-dasharray="18,8" stroke="#02a7f0" fill="none" />
  <path d="M 1309.5 537.5  A 3.5 3.5 0 0 0 1306 541 A 3.5 3.5 0 0 0 1309.5 544.5 A 3.5 3.5 0 0 0 1313 541 A 3.5 3.5 0 0 0 1309.5 537.5 Z M 1309.5 539.5  A 1.5 1.5 0 0 1 1311 541 A 1.5 1.5 0 0 1 1309.5 542.5 A 1.5 1.5 0 0 1 1308 541 A 1.5 1.5 0 0 1 1309.5 539.5 Z M 1467 411.6  L 1474 404  L 1467 396.4  L 1467 411.6  Z " fill-rule="nonzero" fill="#02a7f0" stroke="none" />
</svg>