<?xml version="1.0" encoding="utf-8"?>
<svg version="1.1" xmlns:xlink="http://www.w3.org/1999/xlink" width="80px" height="10px" preserveAspectRatio="xMinYMid meet" viewBox="375 945  80 8" xmlns="http://www.w3.org/2000/svg">
  <path d="M 381 949  L 445 949  A 5 5 0 0 0 450 944 L 450 210  A 5 5 0 0 1 455 205 L 536 205  " stroke-width="2" stroke-dasharray="18,8" stroke="#02a7f0" fill="none" />
  <path d="M 378.5 945.5  A 3.5 3.5 0 0 0 375 949 A 3.5 3.5 0 0 0 378.5 952.5 A 3.5 3.5 0 0 0 382 949 A 3.5 3.5 0 0 0 378.5 945.5 Z M 378.5 947.5  A 1.5 1.5 0 0 1 380 949 A 1.5 1.5 0 0 1 378.5 950.5 A 1.5 1.5 0 0 1 377 949 A 1.5 1.5 0 0 1 378.5 947.5 Z M 535 212.6  L 542 205  L 535 197.4  L 535 212.6  Z " fill-rule="nonzero" fill="#02a7f0" stroke="none" />
</svg>