<?xml version="1.0" encoding="utf-8"?>
<svg version="1.1" xmlns:xlink="http://www.w3.org/1999/xlink" width="21px" height="20px" preserveAspectRatio="xMinYMid meet" viewBox="336 41  21 18" xmlns="http://www.w3.org/2000/svg">
  <path d="M 349 50  L 410 50  A 5 5 0 0 1 415 55 L 415 90  A 5 5 0 0 0 420 95 L 525 95  " stroke-width="2" stroke-dasharray="18,8" stroke="#02a7f0" fill="none" />
  <path d="M 346.5 46.5  A 3.5 3.5 0 0 0 343 50 A 3.5 3.5 0 0 0 346.5 53.5 A 3.5 3.5 0 0 0 350 50 A 3.5 3.5 0 0 0 346.5 46.5 Z M 346.5 48.5  A 1.5 1.5 0 0 1 348 50 A 1.5 1.5 0 0 1 346.5 51.5 A 1.5 1.5 0 0 1 345 50 A 1.5 1.5 0 0 1 346.5 48.5 Z M 524 102.6  L 531 95  L 524 87.4  L 524 102.6  Z " fill-rule="nonzero" fill="#02a7f0" stroke="none" />
</svg>