<?xml version="1.0" encoding="utf-8"?>
<svg version="1.1" xmlns:xlink="http://www.w3.org/1999/xlink" width="139px" height="10px" preserveAspectRatio="xMinYMid meet" viewBox="401 171  139 8" xmlns="http://www.w3.org/2000/svg">
  <path d="M 247 93  L 401 93  A 5 5 0 0 1 406 98 L 406 170  A 5 5 0 0 0 411 175 L 534 175  " stroke-width="2" stroke-dasharray="18,8" stroke="#02a7f0" fill="none" />
  <path d="M 244.5 89.5  A 3.5 3.5 0 0 0 241 93 A 3.5 3.5 0 0 0 244.5 96.5 A 3.5 3.5 0 0 0 248 93 A 3.5 3.5 0 0 0 244.5 89.5 Z M 244.5 91.5  A 1.5 1.5 0 0 1 246 93 A 1.5 1.5 0 0 1 244.5 94.5 A 1.5 1.5 0 0 1 243 93 A 1.5 1.5 0 0 1 244.5 91.5 Z M 533 182.6  L 540 175  L 533 167.4  L 533 182.6  Z " fill-rule="nonzero" fill="#02a7f0" stroke="none" />
</svg>