<?xml version="1.0" encoding="utf-8"?>
<svg version="1.1" xmlns:xlink="http://www.w3.org/1999/xlink" width="20px" height="20px" preserveAspectRatio="xMinYMid meet" viewBox="523 234  20 18" xmlns="http://www.w3.org/2000/svg">
  <path d="M 309 153  L 384 153  A 5 5 0 0 1 389 158 L 389 238  A 5 5 0 0 0 394 243 L 532 243  " stroke-width="2" stroke-dasharray="18,8" stroke="#02a7f0" fill="none" />
  <path d="M 306.5 149.5  A 3.5 3.5 0 0 0 303 153 A 3.5 3.5 0 0 0 306.5 156.5 A 3.5 3.5 0 0 0 310 153 A 3.5 3.5 0 0 0 306.5 149.5 Z M 306.5 151.5  A 1.5 1.5 0 0 1 308 153 A 1.5 1.5 0 0 1 306.5 154.5 A 1.5 1.5 0 0 1 305 153 A 1.5 1.5 0 0 1 306.5 151.5 Z M 531 250.6  L 538 243  L 531 235.4  L 531 250.6  Z " fill-rule="nonzero" fill="#02a7f0" stroke="none" />
</svg>