<?xml version="1.0" encoding="utf-8"?>
<svg version="1.1" xmlns:xlink="http://www.w3.org/1999/xlink" width="76px" height="10px" preserveAspectRatio="xMinYMid meet" viewBox="466 791  76 8" xmlns="http://www.w3.org/2000/svg">
  <path d="M 381 986  L 466 986  A 5 5 0 0 0 471 981 L 471 800  A 5 5 0 0 1 476 795 L 536 795  " stroke-width="2" stroke-dasharray="18,8" stroke="#02a7f0" fill="none" />
  <path d="M 378.5 982.5  A 3.5 3.5 0 0 0 375 986 A 3.5 3.5 0 0 0 378.5 989.5 A 3.5 3.5 0 0 0 382 986 A 3.5 3.5 0 0 0 378.5 982.5 Z M 378.5 984.5  A 1.5 1.5 0 0 1 380 986 A 1.5 1.5 0 0 1 378.5 987.5 A 1.5 1.5 0 0 1 377 986 A 1.5 1.5 0 0 1 378.5 984.5 Z M 535 802.6  L 542 795  L 535 787.4  L 535 802.6  Z " fill-rule="nonzero" fill="#02a7f0" stroke="none" />
</svg>