<?xml version="1.0" encoding="utf-8"?>
<svg version="1.1" xmlns:xlink="http://www.w3.org/1999/xlink" width="20px" height="17px" xmlns="http://www.w3.org/2000/svg">
  <g transform="matrix(1 0 0 1 -14 -21 )">
    <path d="M 14.0736607142857 7.55822159491884  C 14.2150297619048 7.40625735121148  14.2857142857143 7.2262996941896  14.2857142857143 7.01834862385321  C 14.2857142857143 6.81039755351682  14.2150297619048 6.63043989649494  14.0736607142857 6.47847565278758  C 13.9322916666667 6.32651140908022  13.764880952381 6.25052928722653  13.5714285714286 6.25052928722653  C 12.2916666666667 6.25052928722653  11.108630952381 6.4484827099506  10.0223214285714 6.84438955539873  C 8.93601190476191 7.24029640084686  7.97061011904762 7.77617031286756  7.12611607142857 8.45201129146083  C 6.28162202380952 9.1278522700541  5.40550595238095 10.0056457304164  4.49776785714286 11.0853916725476  C 4.35639880952381 11.2533521524347  4.28571428571429 11.4333098094566  4.28571428571429 11.6252646436133  C 4.28571428571429 11.8332157139497  4.35639880952381 12.0131733709715  4.49776785714286 12.1651376146789  C 4.63913690476191 12.3171018583863  4.80654761904762 12.3930839802399  5 12.3930839802399  C 5.17857142857143 12.3930839802399  5.34598214285714 12.3171018583863  5.50223214285714 12.1651376146789  C 5.703125 11.9731827805222  5.97842261904762 11.6892495883322  6.328125 11.3133380381087  C 6.67782738095238 10.9374264878852  6.92708333333333 10.6734885909198  7.07589285714286 10.5215243472124  C 8.0952380952381 9.52975770406963  9.09412202380953 8.82592331216184  10.0725446428571 8.41002117148906  C 11.0509672619048 7.99411903081628  12.2172619047619 7.78616796047989  13.5714285714286 7.78616796047989  C 13.764880952381 7.78616796047989  13.9322916666667 7.71018583862621  14.0736607142857 7.55822159491884  Z M 19.9107142857143 3.49117854622442  C 19.9702380952381 3.95506939543637  20 4.3389790637497  20 4.64290755116443  C 20 5.40272876970125  19.9255952380952 6.17454716537285  19.7767857142857 6.95836273817925  C 19.4345238095238 8.74994119030816  18.7481398809524 10.2815808045166  17.7176339285714 11.5532815808045  C 16.6871279761905 12.8249823570924  15.3571428571429 13.8967301811339  13.7276785714286 14.7685250529287  C 12.1354166666667 15.6323218066337  10.5059523809524 16.0642201834862  8.83928571428571 16.0642201834862  C 7.73809523809524 16.0642201834862  6.67410714285714 15.8762644083745  5.64732142857143 15.500352858151  C 5.53571428571429 15.4603622677017  5.20833333333333 15.2924017878146  4.66517857142857 14.9964714184898  C 4.12202380952381 14.7005410491649  3.76488095238095 14.5525758645025  3.59375 14.5525758645025  C 3.47470238095238 14.5525758645025  3.32775297619048 14.6805457539402  3.15290178571429 14.9364855328158  C 2.9780505952381 15.1924253116914  2.81063988095238 15.4723594448365  2.65066964285714 15.7762879322512  C 2.49069940476191 16.080216419666  2.29538690476191 16.3601505528111  2.06473214285714 16.6160903316867  C 1.83407738095238 16.8720301105622  1.6108630952381 17  1.39508928571429 17  C 1.07514880952381 17  0.838913690476191 16.9300164667137  0.686383928571429 16.7900494001411  C 0.533854166666667 16.6500823335686  0.364583333333333 16.4121383203952  0.178571428571429 16.076217360621  C 0.163690476190476 16.0442248882616  0.141369047619048 16.0002352387673  0.111607142857143 15.9442484121383  C 0.0818452380952381 15.8882615855093  0.0613839285714286 15.84827099506  0.0502232142857143 15.8242766407904  C 0.0390625 15.8002822865208  0.0279017857142857 15.762291225594  0.0167410714285714 15.7103034580099  C 0.00558035714285714 15.6583156904258  0 15.6043283933192  0 15.5483415666902  C 0 15.2684074335451  0.115327380952381 14.9744765937427  0.345982142857143 14.666549047283  C 0.576636904761905 14.3586215008233  0.829613095238095 14.0966831333804  1.10491071428571 13.8807339449541  C 1.38020833333333 13.6647847565279  1.63318452380952 13.4408374500118  1.86383928571429 13.2088920254058  C 2.09449404761905 12.9769466007998  2.20982142857143 12.7849917666431  2.20982142857143 12.6330275229358  C 2.20982142857143 12.6010350505763  2.1577380952381 12.449070806869  2.05357142857143 12.1771347918137  C 1.94940476190476 11.9051987767584  1.88988095238095 11.7292401787815  1.875 11.6492589978829  C 1.80803571428571 11.2413549752999  1.77455357142857 10.8254528346271  1.77455357142857 10.4015525758645  C 1.77455357142857 9.48176899553046  1.93638392857143 8.60197600564573  2.26004464285714 7.7621736062103  C 2.58370535714286 6.92237120677488  3.02641369047619 6.18454481298518  3.58816964285714 5.54869442484121  C 4.1499255952381 4.91284403669725  4.78422619047619 4.35697482945189  5.49107142857143 3.88108680310515  C 6.19791666666667 3.40519877675841  6.95684523809524 3.02328863796754  7.76785714285714 2.73535638673253  C 8.17708333333333 2.59139026111503  8.71651785714286 2.4894142554693  9.38616071428571 2.42942836979534  C 10.0558035714286 2.36944248412138  10.7235863095238 2.33345095271701  11.3895089285714 2.32145377558222  C 12.055431547619 2.30945659844742  12.719494047619 2.28546224417784  13.3816964285714 2.24947071277347  C 14.0438988095238 2.21347918136909  14.6521577380952 2.11750176429076  15.2064732142857 1.96153846153846  C 15.7607886904762 1.80557515878617  16.1830357142857 1.57962832274759  16.4732142857143 1.28369795342272  L 16.8024553571429 0.929781227946366  C 16.8024553571429 0.929781227946366  16.9122023809524 0.817807574688306  17.1316964285714 0.593860268172195  C 17.3511904761905 0.369912961656081  17.4516369047619 0.289931780757466  17.4330357142857 0.353916725476359  C 17.4144345238095 0.417901670195248  17.5502232142857 0.353916725476359  17.8404017857143 0.16196189131969  C 18.1305803571429 -0.029992942836981  18.2924107142857 -0.0479887085391673  18.3258928571429 0.107974594213125  C 18.6160714285714 0.107974594213125  18.8783482142857 0.291931310279933  19.1127232142857 0.659844742413549  C 19.3470982142857 1.02775817454716  19.5238095238095 1.47565278757939  19.6428571428571 2.00352858151023  C 19.7619047619048 2.53140437544107  19.8511904761905 3.02728769701247  19.9107142857143 3.49117854622442  Z " fill-rule="nonzero" fill="#ffffff" stroke="none" transform="matrix(1 0 0 1 14 21 )" />
  </g>
</svg>