<?xml version="1.0" encoding="utf-8"?>
<svg version="1.1" xmlns:xlink="http://www.w3.org/1999/xlink" width="14px" height="14px" xmlns="http://www.w3.org/2000/svg">
  <g transform="matrix(1 0 0 1 -12 -84 )">
    <path d="M 2.36567656765677 12.8171617161716  L 3.35445544554455 12.8171617161716  L 4.1953795379538 11.9762376237624  L 2.02376237623762 9.8046204620462  L 1.18283828382838 10.6455445544554  L 1.18283828382838 11.6343234323432  L 2.36567656765677 11.6343234323432  L 2.36567656765677 12.8171617161716  Z M 8.12277227722772 4.3986798679868  C 8.16589658965897 4.35555555555556  8.18745874587459 4.3031903190319  8.18745874587459 4.24158415841584  C 8.18745874587459 4.10605060506051  8.11969196919692 4.03828382838284  7.98415841584158 4.03828382838284  C 7.92255225522552 4.03828382838284  7.87018701870187 4.05984598459846  7.82706270627063 4.1029702970297  L 2.81848184818482 9.11155115511551  C 2.77535753575358 9.15467546754675  2.75379537953795 9.2070407040704  2.75379537953795 9.26864686468647  C 2.75379537953795 9.4041804180418  2.82156215621562 9.47194719471947  2.95709570957096 9.47194719471947  C 3.01870187018702 9.47194719471947  3.07106710671067 9.45038503850385  3.11419141914191 9.40726072607261  L 8.12277227722772 4.3986798679868  Z M 0 10.1557755775578  L 7.68844884488449 2.46732673267327  L 11.5326732673267 6.31155115511551  L 3.84422442244224 14  L 0 14  L 0 10.1557755775578  Z M 13.6580858085809 2.51353135313531  C 13.8860286028603 2.75379537953795  14 3.03410341034103  14 3.35445544554455  C 14 3.68096809680968  13.8860286028603 3.95819581958196  13.6580858085809 4.18613861386139  L 12.1240924092409 5.72013201320132  L 8.27986798679868 1.87590759075908  L 9.81386138613861 0.35115511551155  C 10.0356435643564 0.117051705170516  10.3128712871287 0  10.6455445544554 0  C 10.9720572057206 0  11.2523652365237 0.117051705170516  11.4864686468647 0.35115511551155  L 13.6580858085809 2.51353135313531  Z " fill-rule="nonzero" fill="#000000" stroke="none" transform="matrix(1 0 0 1 12 84 )" />
  </g>
</svg>